<?xml version="1.0" encoding="UTF-8"?>
<svg id="Camada_2" data-name="Camada 2" xmlns="http://www.w3.org/2000/svg" viewBox="0 0 1035.21 326.02" width="1035.21" height="326.02">
  <defs>
    <style>
      .cls-1 {
        fill: #03a6b9;
      }

      .cls-2 {
        fill: #76b949;
      }
    </style>
  </defs>
  <g id="Camada_2-2" data-name="Camada 2">
    <g>
      <path class="cls-1" d="M1035.2,105.61v91.56h-19.47c-12.58-.86-18.88-6.86-18.88-18.89v-80.39c-.86-15.74-9.45-23.47-26.34-23.47s-25.46,7.73-25.76,23.47v99.29h-38.64v-91.56c0-43.22,21.75-64.68,64.98-64.68s64.4,21.46,64.12,64.68Z"/>
      <path class="cls-2" d="M1034.84,255.82v25.88h-6.58v-3.77c-.85,1.21-2.01,2.22-3.49,3.01-1.47.79-3.18,1.18-5.11,1.18-2.18,0-4.16-.55-5.95-1.67-1.79-1.13-3.21-2.7-4.25-4.75-1.04-2.03-1.57-4.38-1.57-7.03s.53-4.93,1.57-6.96c1.04-2.02,2.46-3.58,4.25-4.68s3.79-1.64,6-1.64c1.93,0,3.62.39,5.06,1.17,1.46.77,2.61,1.76,3.49,2.94v-3.68h6.58ZM1028.26,268.76c0-1.6-.32-2.95-.94-4.1-.62-1.13-1.47-2.01-2.52-2.61s-2.19-.91-3.41-.91-2.33.3-3.36.89-1.85,1.46-2.5,2.6c-.63,1.13-.95,2.47-.95,4.03s.32,2.92.95,4.1c.64,1.16,1.48,2.06,2.52,2.68,1.04.63,2.15.94,3.34.94s2.36-.31,3.41-.91,1.91-1.48,2.52-2.61c.62-1.13.94-2.5.94-4.08Z"/>
      <path class="cls-2" d="M1003.4,255.44v6.86h-1.73c-2.06,0-3.61.49-4.65,1.44-1.04.97-1.57,2.65-1.57,5.05v12.89h-6.54v-25.88h6.54v4.02c.84-1.38,1.94-2.45,3.3-3.22,1.35-.79,2.9-1.17,4.65-1.17Z"/>
      <path class="cls-2" d="M979.64,261.74c1.17,2.03,1.75,4.37,1.75,7.02s-.59,4.98-1.79,7.01c-1.2,2.02-2.82,3.59-4.87,4.69-2.03,1.11-4.31,1.66-6.84,1.66s-4.74-.55-6.72-1.66c-2-1.09-3.57-2.67-4.7-4.69-1.13-2.02-1.7-4.37-1.7-7.01s.58-4.98,1.75-7.02c1.16-2.02,2.76-3.58,4.79-4.69,2.02-1.11,4.28-1.66,6.77-1.66s4.74.55,6.76,1.66c2.03,1.11,3.63,2.67,4.79,4.69ZM973.73,272.96c.63-1.15.94-2.55.94-4.2,0-2.46-.64-4.35-1.94-5.68-1.29-1.33-2.87-1.98-4.74-1.98s-3.43.66-4.69,1.98-1.89,3.22-1.89,5.68.62,4.35,1.84,5.67c1.24,1.33,2.78,2,4.65,2,1.18,0,2.29-.3,3.34-.88,1.04-.57,1.88-1.43,2.5-2.59Z"/>
      <path class="cls-2" d="M972.98,307.85h-6.26c-.09-1.03-.52-1.85-1.29-2.46-.76-.61-1.78-.9-3.05-.9-1.18,0-2.1.22-2.73.64-.64.44-.97,1.04-.97,1.83,0,.88.44,1.53,1.31,1.98.86.45,2.23.91,4.06,1.38,1.88.46,3.41.95,4.64,1.44,1.21.5,2.25,1.28,3.14,2.32.89,1.04,1.35,2.42,1.38,4.13,0,1.49-.41,2.83-1.24,4.02-.82,1.18-2.01,2.11-3.54,2.78-1.55.67-3.35,1-5.4,1s-4.02-.39-5.71-1.15c-1.69-.76-3.01-1.8-3.99-3.1-.98-1.31-1.52-2.76-1.61-4.35h6.58c.13,1,.62,1.83,1.48,2.49.85.64,1.92.98,3.19.98s2.22-.24,2.92-.75c.7-.5,1.04-1.13,1.04-1.92,0-.84-.43-1.47-1.28-1.89-.86-.41-2.23-.88-4.1-1.38-1.93-.46-3.52-.95-4.74-1.44-1.24-.5-2.29-1.26-3.18-2.29s-1.33-2.41-1.33-4.16c0-1.43.41-2.74,1.24-3.93.82-1.17,2.01-2.11,3.55-2.79,1.53-.68,3.35-1.03,5.44-1.03,3.09,0,5.55.77,7.38,2.32,1.84,1.53,2.86,3.62,3.04,6.23Z"/>
      <path class="cls-2" d="M947.29,247.12v34.57h-6.63v-3.83c-.81,1.28-1.94,2.31-3.41,3.08-1.46.79-3.16,1.17-5.09,1.17-2.18,0-4.17-.55-5.98-1.67-1.82-1.13-3.23-2.7-4.28-4.75-1.04-2.03-1.57-4.38-1.57-7.03s.53-4.93,1.57-6.96,2.46-3.58,4.28-4.68c1.8-1.09,3.81-1.64,6.03-1.64,1.67,0,3.28.37,4.8,1.09,1.53.73,2.74,1.71,3.64,2.92v-12.29h6.63ZM940.71,268.76c0-1.6-.31-2.95-.94-4.1-.62-1.13-1.46-2.01-2.52-2.61-1.06-.61-2.19-.91-3.4-.91s-2.34.3-3.37.89c-1.02.59-1.85,1.46-2.5,2.6-.63,1.13-.95,2.47-.95,4.03s.32,2.92.95,4.1c.64,1.16,1.48,2.06,2.52,2.68,1.04.63,2.16.94,3.35.94s2.34-.31,3.4-.91c1.07-.61,1.91-1.48,2.52-2.61.63-1.13.94-2.5.94-4.08Z"/>
      <path class="cls-2" d="M943.86,305.65c1.16,2.03,1.75,4.37,1.75,7.01s-.61,4.98-1.8,7.02c-1.2,2.02-2.82,3.58-4.86,4.69-2.05,1.11-4.33,1.66-6.85,1.66s-4.73-.55-6.72-1.66-3.55-2.67-4.7-4.69c-1.13-2.03-1.7-4.37-1.7-7.02s.58-4.97,1.75-7.01c1.17-2.02,2.77-3.58,4.79-4.69,2.02-1.11,4.28-1.66,6.77-1.66s4.75.55,6.77,1.66c2.02,1.11,3.62,2.67,4.79,4.69ZM937.95,316.87c.62-1.16.93-2.55.93-4.21,0-2.46-.64-4.34-1.93-5.67-1.3-1.33-2.87-1.98-4.74-1.98s-3.44.66-4.7,1.98-1.89,3.21-1.89,5.67.62,4.35,1.84,5.68c1.24,1.33,2.78,1.98,4.65,1.98,1.18,0,2.31-.28,3.35-.86,1.04-.57,1.87-1.44,2.5-2.59Z"/>
      <path class="cls-2" d="M913.84,255.82v25.88h-6.59v-3.77c-.84,1.21-2,2.22-3.48,3.01-1.48.79-3.18,1.18-5.11,1.18-2.18,0-4.16-.55-5.95-1.67-1.8-1.13-3.22-2.7-4.26-4.75-1.04-2.03-1.56-4.38-1.56-7.03s.52-4.93,1.56-6.96,2.46-3.58,4.26-4.68c1.79-1.09,3.79-1.64,6-1.64,1.93,0,3.62.39,5.06,1.17,1.46.77,2.61,1.76,3.48,2.94v-3.68h6.59ZM907.24,268.76c0-1.6-.31-2.95-.93-4.1-.62-1.13-1.47-2.01-2.52-2.61s-2.19-.91-3.41-.91-2.33.3-3.36.89-1.85,1.46-2.5,2.6c-.64,1.13-.95,2.47-.95,4.03s.31,2.92.95,4.1c.64,1.16,1.48,2.06,2.52,2.68,1.04.63,2.15.94,3.34.94s2.36-.31,3.41-.91,1.91-1.48,2.52-2.61c.62-1.13.93-2.5.93-4.08Z"/>
      <rect class="cls-2" x="905.85" y="299.72" width="6.53" height="25.88"/>
      <path class="cls-2" d="M912.04,290.08c.76.72,1.15,1.64,1.15,2.73s-.39,2-1.15,2.73c-.76.73-1.71,1.09-2.87,1.09s-2.11-.36-2.87-1.09c-.76-.73-1.15-1.65-1.15-2.73s.39-2.01,1.15-2.73c.76-.73,1.73-1.11,2.87-1.11s2.11.37,2.87,1.11Z"/>
      <path class="cls-2" d="M898.33,308.46h-7.06c-.37-1.12-1-2-1.89-2.64s-1.98-.95-3.3-.95c-1.87,0-3.35.67-4.43,2.02-1.09,1.37-1.64,3.28-1.64,5.77s.54,4.38,1.64,5.73c1.08,1.35,2.56,2.03,4.43,2.03,2.65,0,4.38-1.18,5.19-3.55h7.06c-.72,2.81-2.14,5.02-4.26,6.68-2.11,1.65-4.77,2.47-7.93,2.47-2.5,0-4.7-.55-6.63-1.66s-3.45-2.67-4.53-4.68c-1.09-2.01-1.64-4.35-1.64-7.03s.54-5.02,1.64-7.03c1.08-2,2.6-3.55,4.53-4.66s4.13-1.66,6.63-1.66c3.21,0,5.86.8,7.96,2.41,2.1,1.6,3.52,3.85,4.24,6.75Z"/>
      <path class="cls-1" d="M897.82,82.71v51.52c0,41.78-25.18,60.39-66.11,63.25-36.35,2.86-61.54-14.03-61.54-47.51.86-36.35,27.2-46.07,65.54-49.79,16.32-2.01,24.61-6.88,24.61-15.17-.85-8.59-8.87-12.88-24.61-12.88-13.45,0-20.89,3.44-22.89,10.59h-38.07c4.59-28.05,24.33-41.78,59.25-41.78,41.78,0,62.97,13.73,63.82,41.78ZM860.9,132.52v-14.03c-8.87,3.72-19.18,6.86-30.34,9.16-15.17,2.86-22.89,10.02-22.89,21.17.85,12.03,7.15,17.75,19.16,17.75,21.19,0,34.07-12.6,34.07-34.05Z"/>
      <path class="cls-2" d="M881.46,255.44v6.86h-1.73c-2.06,0-3.61.49-4.65,1.44-1.04.97-1.57,2.65-1.57,5.05v12.89h-6.53v-25.88h6.53v4.02c.85-1.38,1.94-2.45,3.3-3.22,1.35-.79,2.91-1.17,4.65-1.17Z"/>
      <polygon class="cls-2" points="868.34 287.67 868.34 292.99 857.58 297.89 857.58 293.22 868.34 287.67"/>
      <rect class="cls-2" x="859.96" y="299.72" width="6.54" height="25.88"/>
      <path class="cls-2" d="M860.49,276.18v5.51h-4.12c-5.51,0-8.27-2.67-8.27-8.02v-12.48h-3.08v-5.37h3.08v-6.4h6.59v6.4h5.8v5.37h-5.8v12.52c0,.88.21,1.51.63,1.89.41.39,1.12.58,2.13.58h3.04Z"/>
      <path class="cls-2" d="M852.73,299.72v5.37h-4.53v20.5h-6.63v-20.5h-2.94v-5.37h2.94v-1.31c0-3.18.9-5.51,2.72-7.01,1.8-1.49,4.52-2.2,8.17-2.1v5.51c-1.58-.04-2.69.23-3.31.79-.63.57-.94,1.57-.94,3.04v1.08h4.53Z"/>
      <path class="cls-2" d="M838.76,263.94h-6.26c-.1-1.03-.53-1.84-1.29-2.45-.77-.62-1.79-.91-3.07-.91-1.18,0-2.1.22-2.73.66-.64.44-.95,1.04-.95,1.82,0,.88.43,1.53,1.3,1.98.88.45,2.23.91,4.07,1.38,1.87.48,3.41.95,4.62,1.46,1.21.49,2.27,1.26,3.16,2.31s1.34,2.42,1.38,4.13c0,1.49-.41,2.83-1.24,4.02s-2.01,2.11-3.55,2.78-3.34,1-5.4,1-4.02-.39-5.71-1.15c-1.67-.76-3.01-1.79-3.99-3.1s-1.52-2.76-1.61-4.34h6.59c.12.99.61,1.82,1.47,2.47.85.66,1.92.98,3.19.98s2.23-.24,2.92-.75c.71-.5,1.06-1.13,1.06-1.92,0-.84-.44-1.47-1.29-1.89-.86-.41-2.22-.88-4.08-1.38-1.93-.46-3.52-.94-4.75-1.44-1.22-.5-2.28-1.26-3.17-2.29-.89-1.03-1.34-2.41-1.34-4.16,0-1.43.41-2.73,1.24-3.92.82-1.18,2.01-2.13,3.55-2.81s3.36-1.03,5.45-1.03c3.08,0,5.54.77,7.38,2.32,1.84,1.53,2.85,3.62,3.04,6.23Z"/>
      <path class="cls-2" d="M833.38,312.1c0,.93-.05,1.78-.18,2.52h-18.92c.15,1.87.81,3.34,1.96,4.39,1.16,1.06,2.58,1.58,4.25,1.58,2.43,0,4.16-1.04,5.19-3.13h7.06c-.75,2.5-2.19,4.55-4.3,6.14-2.13,1.61-4.71,2.41-7.81,2.41-2.49,0-4.73-.55-6.7-1.66-1.98-1.11-3.53-2.67-4.64-4.69-1.09-2.03-1.65-4.37-1.65-7.02s.54-5.02,1.64-7.05c1.08-2.03,2.61-3.58,4.57-4.68,1.97-1.09,4.22-1.64,6.77-1.64s4.66.53,6.61,1.58c1.96,1.07,3.46,2.56,4.53,4.51,1.08,1.94,1.61,4.19,1.61,6.71ZM814.32,310.23h12.29c-.03-1.69-.63-3.03-1.82-4.04-1.18-1.02-2.63-1.52-4.34-1.52-1.62,0-2.99.49-4.1,1.47-1.11.99-1.78,2.34-2.03,4.1Z"/>
      <rect class="cls-2" x="803.2" y="255.82" width="6.54" height="25.88"/>
      <path class="cls-2" d="M809.4,246.17c.76.73,1.15,1.64,1.15,2.73s-.39,2-1.15,2.73c-.76.73-1.73,1.09-2.87,1.09s-2.11-.36-2.87-1.09c-.77-.73-1.15-1.64-1.15-2.73s.37-2,1.15-2.73c.76-.73,1.71-1.11,2.87-1.11s2.11.37,2.87,1.11Z"/>
      <path class="cls-2" d="M782.27,302.94c.88-1.12,1.98-2,3.34-2.64,1.37-.64,2.85-.95,4.47-.95,3.08,0,5.58.97,7.47,2.91,1.91,1.94,2.85,4.66,2.85,8.15v15.19h-6.53v-14.3c0-2.05-.52-3.63-1.55-4.74-1.03-1.11-2.43-1.66-4.21-1.66s-3.23.55-4.26,1.66c-1.06,1.11-1.57,2.69-1.57,4.74v14.3h-6.54v-25.88h6.54v3.22Z"/>
      <path class="cls-2" d="M777.08,259.04c.88-1.12,2-2,3.35-2.64,1.35-.63,2.83-.95,4.46-.95,3.09,0,5.58.97,7.48,2.92,1.89,1.94,2.85,4.66,2.85,8.14v15.19h-6.54v-14.3c0-2.05-.52-3.63-1.55-4.74-1.02-1.11-2.42-1.65-4.2-1.65s-3.23.54-4.28,1.65c-1.04,1.11-1.57,2.69-1.57,4.74v14.3h-6.53v-25.88h6.53v3.22Z"/>
      <path class="cls-2" d="M769.19,312.1c0,.93-.06,1.78-.18,2.52h-18.92c.15,1.87.8,3.34,1.96,4.39,1.15,1.06,2.58,1.58,4.25,1.58,2.43,0,4.16-1.04,5.19-3.13h7.05c-.75,2.5-2.18,4.55-4.29,6.14-2.13,1.61-4.73,2.41-7.81,2.41-2.5,0-4.73-.55-6.71-1.66-1.97-1.11-3.52-2.67-4.62-4.69-1.11-2.03-1.65-4.37-1.65-7.02s.54-5.02,1.62-7.05c1.09-2.03,2.63-3.58,4.59-4.68,1.96-1.09,4.22-1.64,6.77-1.64s4.66.53,6.61,1.58c1.94,1.07,3.46,2.56,4.53,4.51,1.08,1.94,1.61,4.19,1.61,6.71ZM750.13,310.23h12.29c-.03-1.69-.63-3.03-1.82-4.04s-2.64-1.52-4.35-1.52c-1.61,0-2.98.49-4.08,1.47-1.11.99-1.78,2.34-2.03,4.1Z"/>
      <rect class="cls-2" x="754.85" y="255.82" width="6.54" height="25.88"/>
      <path class="cls-2" d="M761.03,246.17c.77.73,1.15,1.64,1.15,2.73s-.37,2-1.15,2.73c-.76.73-1.71,1.09-2.87,1.09s-2.11-.36-2.87-1.09c-.76-.73-1.15-1.64-1.15-2.73s.39-2,1.15-2.73c.76-.73,1.73-1.11,2.87-1.11s2.11.37,2.87,1.11Z"/>
      <path class="cls-1" d="M760.74,18.6v178.59h-38.07V0h19.74c10.02,0,18.33,8.59,18.33,18.6Z"/>
      <path class="cls-2" d="M737.18,316.78c0,1.74-.43,3.27-1.28,4.6-.86,1.33-2.1,2.36-3.72,3.1-1.61.75-3.53,1.12-5.74,1.12h-14.06v-32.61h13.46c2.22,0,4.12.36,5.72,1.08,1.61.71,2.82,1.71,3.64,2.99s1.24,2.72,1.24,4.34c0,1.91-.5,3.49-1.51,4.77-1.02,1.28-2.37,2.18-4.04,2.72,1.83.33,3.35,1.26,4.53,2.76,1.18,1.49,1.76,3.21,1.76,5.14ZM729.22,319.16c.89-.75,1.33-1.82,1.33-3.18s-.46-2.5-1.39-3.3c-.94-.79-2.2-1.18-3.79-1.18h-6.45v8.78h6.59c1.58,0,2.82-.37,3.71-1.12ZM729.76,302.38c0-1.3-.43-2.32-1.26-3.03-.84-.72-2.05-1.08-3.59-1.08h-5.99v8.18h5.99c1.55,0,2.76-.35,3.59-1.06.84-.7,1.26-1.7,1.26-3.01Z"/>
      <path class="cls-2" d="M729.4,262.75c-1.04,1.08-1.56,2.63-1.56,4.65v14.3h-6.54v-14.3c0-2.02-.52-3.57-1.55-4.65-1.02-1.07-2.42-1.61-4.2-1.61s-3.23.54-4.28,1.61c-1.04,1.08-1.56,2.63-1.56,4.65v14.3h-6.54v-25.88h6.54v3.13c.84-1.09,1.92-1.94,3.25-2.58,1.31-.62,2.77-.93,4.37-.93,2.02,0,3.83.43,5.42,1.29,1.58.85,2.81,2.07,3.68,3.66.84-1.49,2.06-2.69,3.67-3.59,1.6-.9,3.34-1.35,5.2-1.35,3.18,0,5.74.97,7.69,2.92,1.94,1.94,2.92,4.66,2.92,8.14v15.19h-6.54v-14.3c0-2.02-.52-3.57-1.55-4.65-1.03-1.07-2.42-1.61-4.2-1.61s-3.18.54-4.24,1.61Z"/>
      <path class="cls-2" d="M695,247.12v34.57h-6.63v-3.83c-.81,1.28-1.94,2.31-3.41,3.08-1.47.79-3.17,1.17-5.09,1.17-2.19,0-4.19-.55-5.99-1.67-1.8-1.13-3.23-2.7-4.28-4.75-1.04-2.03-1.56-4.38-1.56-7.03s.52-4.93,1.56-6.96,2.47-3.58,4.28-4.68,3.81-1.64,6.03-1.64c1.69,0,3.28.37,4.82,1.09,1.52.73,2.74,1.71,3.64,2.92v-12.29h6.63ZM688.41,268.76c0-1.6-.31-2.95-.93-4.1-.63-1.13-1.47-2.01-2.52-2.61s-2.2-.91-3.41-.91-2.33.3-3.36.89-1.87,1.46-2.5,2.6c-.64,1.13-.95,2.47-.95,4.03s.31,2.92.95,4.1c.63,1.16,1.48,2.06,2.52,2.68,1.04.63,2.15.94,3.34.94s2.36-.31,3.41-.91,1.89-1.48,2.52-2.61c.62-1.13.93-2.5.93-4.08Z"/>
      <path class="cls-2" d="M692.01,312.1c0,.93-.06,1.78-.19,2.52h-18.92c.15,1.87.81,3.34,1.96,4.39,1.16,1.06,2.58,1.58,4.26,1.58,2.42,0,4.15-1.04,5.18-3.13h7.06c-.75,2.5-2.18,4.55-4.3,6.14-2.11,1.61-4.71,2.41-7.81,2.41-2.49,0-4.73-.55-6.7-1.66-1.98-1.11-3.52-2.67-4.62-4.69-1.11-2.03-1.66-4.37-1.66-7.02s.54-5.02,1.64-7.05c1.09-2.03,2.61-3.58,4.57-4.68,1.97-1.09,4.22-1.64,6.77-1.64s4.68.53,6.62,1.58c1.94,1.07,3.45,2.56,4.53,4.51,1.07,1.94,1.61,4.19,1.61,6.71ZM672.95,310.23h12.29c-.04-1.69-.64-3.03-1.83-4.04-1.18-1.02-2.63-1.52-4.34-1.52-1.62,0-2.99.49-4.08,1.47-1.11.99-1.79,2.34-2.03,4.1Z"/>
      <path class="cls-1" d="M704.93,117.91c0,51.52-20.04,78.14-60.39,79.57-18.89,0-33.2-7.73-42.94-23.47v60.96c0,12.6-6.29,18.89-18.88,18.89h-19.18V109.05c2.01-45.23,25.48-67.55,70.98-67.55s70.41,25.48,70.41,76.42ZM666,119.64c0-30.63-10.87-45.8-32.62-45.8s-32.06,15.17-31.77,45.8c1.15,29.19,11.75,43.79,32.35,43.79s31.19-14.61,32.04-43.79Z"/>
      <path class="cls-2" d="M650.9,249.04l11.72,32.65h-6.92l-2.15-6.21h-12.98l-2.15,6.21h-6.86l11.72-32.65h7.62ZM651.78,270.25l-4.71-13.64-4.71,13.64h9.43Z"/>
      <path class="cls-2" d="M658.83,291.03v34.57h-6.63v-3.83c-.81,1.28-1.94,2.31-3.41,3.08-1.46.79-3.16,1.17-5.09,1.17-2.18,0-4.17-.57-5.98-1.69-1.82-1.12-3.23-2.69-4.28-4.74-1.04-2.03-1.57-4.38-1.57-7.03s.53-4.93,1.57-6.96c1.04-2.03,2.46-3.58,4.28-4.68,1.8-1.09,3.81-1.64,6.03-1.64,1.67,0,3.28.36,4.8,1.09,1.53.73,2.74,1.71,3.64,2.92v-12.29h6.63ZM652.25,312.65c0-1.58-.31-2.95-.94-4.08-.62-1.13-1.47-2.01-2.52-2.61s-2.19-.91-3.4-.91-2.34.3-3.37.89c-1.02.59-1.85,1.46-2.5,2.59-.63,1.15-.95,2.49-.95,4.04s.32,2.92.95,4.1c.64,1.16,1.48,2.06,2.52,2.68,1.04.63,2.16.94,3.35.94s2.34-.31,3.4-.91,1.91-1.48,2.52-2.61c.63-1.13.94-2.5.94-4.1Z"/>
      <path class="cls-2" d="M565.82,42.99l-53.46,158.38s-.01.04-.01.05c-3.58,13.94-8.95,27.15-15.84,39.39l-29.69-16.55c2.06-3.63,3.94-7.39,5.64-11.24.98-1.49,1.67-3.17,2.11-5.05,1.06-4.53.57-10.2-1.47-17l-48.76-140.04-2.76-7.93h43.21l30.05,105.05,12.73-44.24,13.61-47.35c2.29-8.87,8.31-13.46,18.03-13.46h26.61Z"/>
      <path class="cls-1" d="M461.4,235.18l27.46,18.88c-29.67,43.08-79.35,71.31-135.61,71.31s-105.95-28.23-135.61-71.31l28.54-19.64c19.47,28.49,49.95,48.85,85.29,55.01-6.96-6.03-11.39-14.9-11.39-24.83,0-18.15,14.71-32.86,32.86-32.86s32.86,14.71,32.86,32.86c0,10.16-4.62,19.26-11.89,25.28,36.19-5.53,67.49-25.89,87.49-54.7Z"/>
      <path class="cls-2" d="M408.7,116.77c7.16,7.44,10.59,16.6,10.59,26.91,0,37.21-29.19,50.95-69.25,50.95-21.19,0-37.21-4.59-47.51-13.46-11.45-8.58-17.18-21.75-17.18-39.21h38.94c.85,16.6,12.88,22.32,31.48,22.32,16.02,0,24.05-4.57,24.05-14.31,0-7.73-13.18-14.03-39.22-18.6-33.49-6.01-50.66-20.9-50.94-44.65,0-32.62,25.76-48.08,60.39-48.66,19.46,0,34.92,4.3,46.37,12.88,11.15,8.87,17.17,21.19,18.03,36.93h-24.05c-8.87-.28-14.59-3.44-16.89-9.45-2.58-6.58-10.3-10.3-22.9-10.3-14.89,0-22.32,4.02-22.32,11.75s9.72,13.73,29.48,17.45c25.76,5.15,42.64,11.73,50.94,19.46Z"/>
      <path class="cls-2" d="M277.62,82.71v51.52c0,41.78-25.18,60.39-66.11,63.25-36.35,2.86-61.54-14.03-61.54-47.51.86-36.35,27.19-46.07,65.54-49.79,16.32-2.01,24.61-6.88,24.61-15.17-.86-8.59-8.87-12.88-24.61-12.88-13.45,0-20.89,3.44-22.9,10.59h-38.06c4.57-28.05,24.33-41.78,59.25-41.78,41.78,0,62.96,13.73,63.82,41.78ZM240.7,132.52v-14.03c-8.86,3.72-19.16,6.86-30.33,9.16-15.17,2.86-22.9,10.02-22.9,21.17.86,12.03,7.16,17.75,19.18,17.75,21.17,0,34.05-12.6,34.05-34.05Z"/>
      <path class="cls-2" d="M69.27,40.93c48.08,0,70.7,29.48,67.84,88.72H39.22c1.43,23.18,11.45,34.93,30.05,34.93,8.87,0,17.17-3.72,24.61-10.88,3.44-3.72,7.73-5.44,12.88-5.44h28.05c-8.31,32.06-28.91,49.81-66.11,49.81C22.9,196.62,0,170.01,0,118.49S23.18,41.21,69.27,40.93ZM39.79,102.46h56.95c-2.28-20.03-11.73-30.33-28.04-30.33s-26.06,10.3-28.91,30.33Z"/>
    </g>
  </g>
</svg>